# xmcd
#
# Track frame offsets:
#	150
#	16800
#	35452
#	54085
#	72957
#	97650
#	119395
#	137552
#	155445
#	177282
#	198290
#	215540
#
# Disc length: 3166 seconds
#
# Revision: 5
# Processed by: cddbd v1.5.1PL0 Copyright (c) Steve Scherf et al.
# Submitted via: dBpowerAMP V4.0
#
DISCID=950c5c0c
DTITLE=Johnnie Taylor - Gotta Get The Groove Back
DYEAR=1999
DGENRE=Blues
TTITLE0=Big Head Hundreds
TTITLE1=I'm From The Old School
TTITLE2=Juke Joint
TTITLE3=One In A Million
TTITLE4=Ease Back Out
TTITLE5=Gotta Get The Groove Back
TTITLE6=Wounded In The Battle Of Love
TTITLE7=Too Close For Comfort
TTITLE8=I Love You Lady
TTITLE9=Woman Don't Be Afraid
TTITLE10=Let's Get Back On Track
TTITLE11=Soul Heaven
EXTD=
EXTT0=
EXTT1=
EXTT2=
EXTT3=
EXTT4=
EXTT5=
EXTT6=
EXTT7=
EXTT8=
EXTT9=
EXTT10=
EXTT11=
PLAYORDER=
